<svg width="297.3125px" height="130.415087890625px" xmlns="http://www.w3.org/2000/svg" viewBox="101.34375 9.792456054687506 297.3125 130.415087890625" style="background: rgba(0, 0, 0, 0);" preserveAspectRatio="xMidYMid"><defs><filter id="editing-offset"><feFlood flood-color="#2ec0ec" flood-opacity="0.5" result="c1"></feFlood><feFlood flood-color="#0f0" flood-opacity="0.5" result="c2"></feFlood><feFlood flood-color="#0000ff" flood-opacity="0.5" result="c3"></feFlood><feComposite operator="in" in="c1" in2="SourceAlpha" result="text-c1"></feComposite><feComposite operator="in" in="c2" in2="SourceAlpha" result="text-c2"></feComposite><feComposite operator="in" in="c3" in2="SourceAlpha" result="text-c3"></feComposite><feOffset in="text-c1" dx="-10" dy="0" result="text1"></feOffset><feOffset in="text-c2" dx="10" dy="0" result="text2"></feOffset><feOffset in="text-c3" dx="0" dy="0" result="text3"></feOffset><feMerge><feMergeNode in="text1"></feMergeNode><feMergeNode in="text2"></feMergeNode><feMergeNode in="text3"></feMergeNode></feMerge></filter></defs><g filter="url(#editing-offset)"><g transform="translate(148.41939902305603, 103.8114013671875)"><path d="M23.42-17.73L23.42-17.73L23.49-16.51L23.49-16.51Q23.49-16.32 23.87-12.48L23.87-12.48L23.87-11.71L23.87-11.71Q23.87-10.18 24.38-7.10L24.38-7.10L24.38-7.10Q24.38-5.76 25.73-2.43L25.73-2.43L25.73-2.43Q26.05-2.24 26.18-1.54L26.18-1.54L26.11-0.90L26.11-0.90Q26.24-0.58 25.79-0.19L25.79-0.19L25.79-0.19Q25.79 0.26 24.58 0.26L24.58 0.26L24.58 0.26Q23.36 0.26 23.04 0.38L23.04 0.38L23.04 0.38Q22.72 0.51 22.02 0.26L22.02 0.26L22.02 0.26Q21.76 0.38 20.48-0.26L20.48-0.26L20.48-0.26Q19.90-0.38 19.58-1.41L19.58-1.41L19.07-2.62L19.07-2.62Q19.07-3.78 18.43-4.67L18.43-4.67L18.43-4.67Q18.43-4.99 18.14-5.82L18.14-5.82L18.14-5.82Q17.86-6.66 17.73-6.72L17.73-6.72L17.73-6.72Q17.09-4.16 16.13-2.75L16.13-2.75L16.13-2.75Q16.13-2.43 15.74-1.98L15.74-1.98L15.10-0.77L15.10-0.77Q15.10-0.64 14.53-0.06L14.53-0.06L14.53-0.06Q14.14 0.77 12.80 0.77L12.80 0.77L12.80 0.77Q11.58 0.77 9.86 0.13L9.86 0.13L9.86 0.13Q9.41 0.06 8.06-0.45L8.06-0.45L8.06-0.45Q7.68-0.38 6.88-0.67L6.88-0.67L6.88-0.67Q6.08-0.96 5.95-0.96L5.95-0.96L5.95-0.96Q5.76-1.15 5.06-1.60L5.06-1.60L3.97-2.75L3.97-2.75Q3.90-2.82 3.74-3.36L3.74-3.36L3.74-3.36Q3.58-3.90 3.65-4.13L3.65-4.13L3.65-4.13Q3.71-4.35 3.65-4.80L3.65-4.80L3.65-4.80Q3.58-5.25 3.71-5.70L3.71-5.70L3.71-5.70Q3.71-6.98 3.97-8.51L3.97-8.51L3.97-8.51Q3.90-8.70 3.90-8.96L3.90-8.96L3.90-8.96Q3.90-9.22 4.16-9.92L4.16-9.92L4.16-9.92Q4.10-10.24 4.10-10.37L4.10-10.37L4.42-12.86L4.42-12.86Q4.42-13.76 4.48-14.14L4.48-14.14L4.48-15.10L4.48-15.10Q4.54-15.36 4.54-15.81L4.54-15.81L4.86-18.88L4.86-18.88Q4.86-19.58 4.93-19.78L4.93-19.78L4.93-20.42L4.93-20.42Q5.06-20.54 5.06-21.44L5.06-21.44L5.63-23.23L6.08-24L6.08-24Q6.14-24.26 6.78-24.58L6.78-24.58L6.78-24.58Q7.81-25.22 9.73-25.22L9.73-25.22L9.73-25.22Q10.50-25.09 11.39-24.58L11.39-24.58L11.39-24.58Q11.58-24.64 12.29-24.32L12.29-24.32L12.29-24.32Q13.57-23.74 12.42-21.06L12.42-21.06L12.42-21.06Q12.16-19.33 12.16-19.26L12.16-19.26L12.16-19.26Q11.90-18.75 11.90-18.43L11.90-18.43L11.90-18.43Q11.52-16.38 11.52-16.26L11.52-16.26L11.52-16.26Q11.78-16.51 11.33-15.49L11.33-15.49L11.07-13.12L11.07-13.12Q10.62-11.58 10.69-9.73L10.69-9.73L10.43-8.90L10.43-8.90Q10.50-8.58 10.37-6.91L10.37-6.91L10.37-6.91Q10.50-6.72 10.50-6.46L10.50-6.46L10.56-5.95L10.56-5.95Q10.50-5.76 10.62-5.60L10.62-5.60L10.62-5.60Q10.75-5.44 11.36-5.47L11.36-5.47L11.36-5.47Q11.97-5.50 12.42-5.76L12.42-5.76L12.42-5.76Q13.31-6.85 13.63-8.03L13.63-8.03L13.63-8.03Q13.95-9.22 13.95-9.41L13.95-9.41L13.95-9.41Q15.04-12.16 15.30-12.61L15.30-12.61L15.30-12.61Q15.62-14.34 16.38-16.58L16.38-16.58L16.38-16.58Q16.26-16.90 16.38-17.86L16.38-17.86L17.22-21.25L17.22-21.25Q17.79-22.21 17.79-22.43L17.79-22.43L17.79-22.43Q17.79-22.66 18.56-24.19L18.56-24.19L18.56-24.19Q18.56-24.45 18.94-25.22L18.94-25.22L18.94-25.22Q19.39-25.92 20.54-26.56L20.54-26.56L20.74-26.56L20.74-26.56Q22.14-26.69 23.17-26.18L23.17-26.18L23.17-26.18Q23.30-25.92 23.30-25.28L23.30-25.28L23.30-25.28Q23.42-24.64 23.55-22.98L23.55-22.98L23.55-22.34L23.30-20.93L23.30-20.93Q23.81-19.33 23.42-17.73ZM46.66-18.05L46.66-18.82L46.66-18.82Q46.98-21.31 46.85-21.50L46.85-21.50L46.85-21.50Q46.53-21.38 46.08-20.80L46.08-20.80L43.97-18.43L43.97-18.43Q40.64-14.27 40.64-13.50L40.64-13.50L40.64-13.50Q40.64-13.38 40.19-12.48L40.19-12.48L40.26-11.46L40.13-8.70L40.13-8L40.13-8Q40.13-5.25 40.32-4.03L40.32-4.03L40.32-4.03Q40.38-4.22 41.41-4.86L41.41-4.86L42.50-6.34L42.50-6.34Q44.16-8.38 44.61-9.28L44.61-9.28L44.61-9.28Q46.02-13.57 46.02-14.14L46.02-14.14L46.02-14.14Q46.02-15.04 46.53-16.70L46.53-16.70L46.53-16.70Q46.53-17.28 46.66-18.05L46.66-18.05ZM32.96-19.84L32.96-19.84L33.22-22.78L33.22-22.78Q33.41-23.30 33.28-24.13L33.28-24.13L33.73-26.75L33.73-26.75Q33.73-27.33 33.66-28L33.66-28L33.66-28Q33.60-28.67 33.73-28.93L33.73-28.93L33.73-28.93Q33.98-29.44 35.07-29.82L35.07-29.82L34.82-29.82L34.82-29.82Q35.46-30.21 36.61-29.89L36.61-29.89L36.61-29.89Q37.76-29.57 38.53-29.31L38.53-29.31L38.53-29.31Q38.98-28.74 39.68-28.03L39.68-28.03L39.74-25.98L39.74-25.98Q39.74-24.38 39.94-22.66L39.94-22.66L39.94-22.66Q39.87-21.95 39.94-21.76L39.94-21.76L41.02-22.91L41.02-22.91Q41.09-23.04 42.46-24.32L42.46-24.32L42.46-24.32Q43.84-25.60 44.22-25.92L44.22-25.92L44.22-25.92Q44.22-26.24 44.99-26.43L44.99-26.43L44.99-26.43Q46.66-26.82 47.81-26.46L47.81-26.46L47.81-26.46Q48.96-26.11 49.09-26.11L49.09-26.11L51.46-25.09L51.46-25.09Q51.46-24.83 52.10-24.64L52.10-24.64L52.67-24.32L52.67-24.32Q52.99-24.32 53.50-23.87L53.50-23.87L53.50-23.87Q54.27-23.74 54.08-22.78L54.08-22.78L54.08-22.78Q54.08-22.53 54.27-22.27L54.27-22.27L54.27-20.74L54.27-20.74Q54.27-19.71 53.66-17.12L53.66-17.12L53.66-17.12Q53.06-14.53 52.90-14.08L52.90-14.08L52.90-14.08Q52.74-13.63 52.51-12.93L52.51-12.93L52.51-12.93Q52.29-12.22 52.03-11.58L52.03-11.58L52.03-11.58Q51.71-10.50 50.75-8.61L50.75-8.61L50.75-8.61Q49.79-6.72 48.83-5.63L48.83-5.63L48.83-5.63Q46.59-2.50 43.84-0.64L43.84-0.64L43.84-0.64Q40.83 0.51 40.06 0.70L40.06 0.70L40.06 0.70Q39.87 0.70 40.06 3.01L40.06 3.01L40.06 7.62L40.26 10.43L40.32 13.31L40.32 13.31Q40.45 15.42 40.19 15.68L40.19 15.68L39.42 16.32L39.42 16.32Q38.59 16.64 37.95 16.38L37.95 16.38L37.95 16.38Q36.67 16 36.42 15.81L36.42 15.81L36.42 15.81Q36.16 15.81 35.58 15.30L35.58 15.30L34.88 15.04L34.88 15.04Q33.98 15.17 33.79 14.59L33.79 14.59L33.79 14.59Q33.15 14.08 33.15 13.70L33.15 13.70L32.19 12.29L32.19 12.29Q31.81 11.33 31.81 10.50L31.81 10.50L31.81 10.50Q31.42 9.09 31.55 8.32L31.55 8.32L31.42 5.89L31.42 2.50L31.42 2.50Q31.42 0.77 31.30 0.26L31.30 0.26L31.30 0.26Q31.17-0.13 31.42-6.53L31.42-6.53L31.42-6.53Q31.62-7.81 31.62-8.13L31.62-8.13L32.58-16L32.77-18.18L32.77-18.69L32.77-18.69Q32.96-19.46 32.96-19.84ZM66.18-21.70L66.05-20.16L66.05-20.16Q66.05-19.14 65.95-18.37L65.95-18.37L65.95-18.37Q65.86-17.60 65.86-17.41L65.86-17.41L65.86-17.41Q65.86-15.42 65.70-14.50L65.70-14.50L65.70-14.50Q65.54-13.57 65.54-12.99L65.54-12.99L65.54-10.11L65.54-10.11Q65.54-6.40 65.79-5.66L65.79-5.66L65.79-5.66Q66.05-4.93 66.69-4.67L66.69-4.67L66.69-4.67Q67.39-4.48 67.78-4.77L67.78-4.77L67.78-4.77Q68.16-5.06 68.51-5.66L68.51-5.66L68.51-5.66Q68.86-6.27 69.09-7.07L69.09-7.07L69.09-7.07Q69.31-7.87 69.76-8.80L69.76-8.80L69.76-8.80Q70.21-9.73 70.30-10.14L70.30-10.14L70.30-10.14Q70.40-10.56 70.85-11.20L70.85-11.20L70.85-11.20Q71.74-14.66 71.87-19.20L71.87-19.20L71.87-21.25L71.87-21.25Q72-23.81 72.83-25.54L72.83-25.54L72.83-25.54Q73.28-26.56 75.46-27.20L75.46-27.20L76.42-27.26L76.42-27.26Q77.70-27.26 78.08-26.88L78.08-26.88L78.08-26.88Q78.46-25.02 78.14-21.63L78.14-21.63L78.14-17.22L78.14-17.22Q78.27-14.02 78.27-12.80L78.27-12.80L78.27-12.80Q78.21-12.35 78.34-5.25L78.34-5.25L78.34-5.25Q78.27-5.18 78.34-3.58L78.34-3.58L78.34-3.58Q78.40-2.56 78.18 0.90L78.18 0.90L78.18 0.90Q77.95 4.35 77.95 5.06L77.95 5.06L77.95 5.06Q77.25 8.96 76.38 10.43L76.38 10.43L76.38 10.43Q75.52 11.90 74.05 12.99L74.05 12.99L74.05 12.99Q73.02 14.02 70.40 14.40L70.40 14.40L70.40 14.40Q70.21 14.34 69.38 14.34L69.38 14.34L69.38 14.34Q65.54 13.95 64.38 12.80L64.38 12.80L64.38 12.80Q60.99 11.07 60.45 10.27L60.45 10.27L60.45 10.27Q59.90 9.47 59.78 8.77L59.78 8.77L59.78 8.77Q59.65 8.06 60.16 6.40L60.16 6.40L60.16 6.40Q61.12 5.18 62.66 5.95L62.66 5.95L62.66 5.95Q63.30 6.27 64.96 7.23L64.96 7.23L67.07 8.26L67.07 8.26Q67.52 8.64 67.97 8.32L67.97 8.32L67.97 8.32Q68.61 7.94 68.74 7.94L68.74 7.94L68.74 7.94Q69.82 7.04 70.85 5.12L70.85 5.12L70.85 5.12Q70.85 4.48 71.49 3.20L71.49 3.20L71.49 3.20Q71.49 1.92 72.26-0.58L72.26-0.58L72.26-1.28L72.26-1.28Q72.26-2.24 72.38-2.91L72.38-2.91L72.38-2.91Q72.51-3.58 72.51-3.97L72.51-3.97L72.51-3.97Q72-3.01 71.68-2.18L71.68-2.18L71.68-2.18Q71.36-1.34 70.91-0.77L70.91-0.77L70.91-0.77Q70.85-0.38 69.57 0L69.57 0L67.20 0.06L67.20 0.06Q67.20 0 66.82 0L66.82 0L65.86-0.06L65.86-0.06Q62.46-0.06 61.57-0.96L61.57-0.96L61.57-0.96Q61.12-1.54 60.48-2.05L60.48-2.05L60.48-2.05Q59.90-2.75 59.78-3.84L59.78-3.84L59.78-3.84Q59.58-4.03 59.52-4.93L59.52-4.93L59.52-5.63L59.39-6.40L59.39-6.40Q59.46-6.53 59.26-7.30L59.26-7.30L59.26-7.30Q59.14-8.06 59.14-9.79L59.14-9.79L59.14-10.56L59.14-10.56Q59.14-16.26 59.26-16.51L59.26-16.51L59.26-16.51Q59.46-16.90 59.46-17.22L59.46-17.22L59.46-17.22Q59.33-17.54 59.52-17.92L59.52-17.92L59.65-18.82L60.29-20.80L60.29-20.80Q60.29-21.06 60.67-22.40L60.67-22.40L60.67-22.40Q61.06-22.78 61.12-23.30L61.12-23.30L61.12-23.30Q61.38-24.51 61.41-24.96L61.41-24.96L61.41-24.96Q61.44-25.41 61.95-26.18L61.95-26.18L61.95-26.18Q62.72-26.75 64.22-26.59L64.22-26.59L64.22-26.59Q65.73-26.43 66.82-25.28L66.82-25.28L66.11-22.46L66.11-22.46Q66.18-22.02 66.18-21.70L66.18-21.70ZM105.73-17.73L105.73-17.73L105.79-16.51L105.79-16.51Q105.79-16.32 106.18-12.48L106.18-12.48L106.18-11.71L106.18-11.71Q106.18-10.18 106.69-7.10L106.69-7.10L106.69-7.10Q106.69-5.76 108.03-2.43L108.03-2.43L108.03-2.43Q108.35-2.24 108.48-1.54L108.48-1.54L108.42-0.90L108.42-0.90Q108.54-0.58 108.10-0.19L108.10-0.19L108.10-0.19Q108.10 0.26 106.88 0.26L106.88 0.26L106.88 0.26Q105.66 0.26 105.34 0.38L105.34 0.38L105.34 0.38Q105.02 0.51 104.32 0.26L104.32 0.26L104.32 0.26Q104.06 0.38 102.78-0.26L102.78-0.26L102.78-0.26Q102.21-0.38 101.89-1.41L101.89-1.41L101.38-2.62L101.38-2.62Q101.38-3.78 100.74-4.67L100.74-4.67L100.74-4.67Q100.74-4.99 100.45-5.82L100.45-5.82L100.45-5.82Q100.16-6.66 100.03-6.72L100.03-6.72L100.03-6.72Q99.39-4.16 98.43-2.75L98.43-2.75L98.43-2.75Q98.43-2.43 98.05-1.98L98.05-1.98L97.41-0.77L97.41-0.77Q97.41-0.64 96.83-0.06L96.83-0.06L96.83-0.06Q96.45 0.77 95.10 0.77L95.10 0.77L95.10 0.77Q93.89 0.77 92.16 0.13L92.16 0.13L92.16 0.13Q91.71 0.06 90.37-0.45L90.37-0.45L90.37-0.45Q89.98-0.38 89.18-0.67L89.18-0.67L89.18-0.67Q88.38-0.96 88.26-0.96L88.26-0.96L88.26-0.96Q88.06-1.15 87.36-1.60L87.36-1.60L86.27-2.75L86.27-2.75Q86.21-2.82 86.05-3.36L86.05-3.36L86.05-3.36Q85.89-3.90 85.95-4.13L85.95-4.13L85.95-4.13Q86.02-4.35 85.95-4.80L85.95-4.80L85.95-4.80Q85.89-5.25 86.02-5.70L86.02-5.70L86.02-5.70Q86.02-6.98 86.27-8.51L86.27-8.51L86.27-8.51Q86.21-8.70 86.21-8.96L86.21-8.96L86.21-8.96Q86.21-9.22 86.46-9.92L86.46-9.92L86.46-9.92Q86.40-10.24 86.40-10.37L86.40-10.37L86.72-12.86L86.72-12.86Q86.72-13.76 86.78-14.14L86.78-14.14L86.78-15.10L86.78-15.10Q86.85-15.36 86.85-15.81L86.85-15.81L87.17-18.88L87.17-18.88Q87.17-19.58 87.23-19.78L87.23-19.78L87.23-20.42L87.23-20.42Q87.36-20.54 87.36-21.44L87.36-21.44L87.94-23.23L88.38-24L88.38-24Q88.45-24.26 89.09-24.58L89.09-24.58L89.09-24.58Q90.11-25.22 92.03-25.22L92.03-25.22L92.03-25.22Q92.80-25.09 93.70-24.58L93.70-24.58L93.70-24.58Q93.89-24.64 94.59-24.32L94.59-24.32L94.59-24.32Q95.87-23.74 94.72-21.06L94.72-21.06L94.72-21.06Q94.46-19.33 94.46-19.26L94.46-19.26L94.46-19.26Q94.21-18.75 94.21-18.43L94.21-18.43L94.21-18.43Q93.82-16.38 93.82-16.26L93.82-16.26L93.82-16.26Q94.08-16.51 93.63-15.49L93.63-15.49L93.38-13.12L93.38-13.12Q92.93-11.58 92.99-9.73L92.99-9.73L92.74-8.90L92.74-8.90Q92.80-8.58 92.67-6.91L92.67-6.91L92.67-6.91Q92.80-6.72 92.80-6.46L92.80-6.46L92.86-5.95L92.86-5.95Q92.80-5.76 92.93-5.60L92.93-5.60L92.93-5.60Q93.06-5.44 93.66-5.47L93.66-5.47L93.66-5.47Q94.27-5.50 94.72-5.76L94.72-5.76L94.72-5.76Q95.62-6.85 95.94-8.03L95.94-8.03L95.94-8.03Q96.26-9.22 96.26-9.41L96.26-9.41L96.26-9.41Q97.34-12.16 97.60-12.61L97.60-12.61L97.60-12.61Q97.92-14.34 98.69-16.58L98.69-16.58L98.69-16.58Q98.56-16.90 98.69-17.86L98.69-17.86L99.52-21.25L99.52-21.25Q100.10-22.21 100.10-22.43L100.10-22.43L100.10-22.43Q100.10-22.66 100.86-24.19L100.86-24.19L100.86-24.19Q100.86-24.45 101.25-25.22L101.25-25.22L101.25-25.22Q101.70-25.92 102.85-26.56L102.85-26.56L103.04-26.56L103.04-26.56Q104.45-26.69 105.47-26.18L105.47-26.18L105.47-26.18Q105.60-25.92 105.60-25.28L105.60-25.28L105.60-25.28Q105.73-24.64 105.86-22.98L105.86-22.98L105.86-22.34L105.60-20.93L105.60-20.93Q106.11-19.33 105.73-17.73ZM128.32-2.37L128.32-2.37L127.94-3.46L127.23-7.74L127.23-7.74Q126.91-8.96 126.91-9.92L126.91-9.92L127.17-12.74L127.17-12.74Q127.17-13.44 127.23-13.50L127.23-13.50L127.23-13.50Q126.46-13.50 124.93-11.65L124.93-11.65L124.93-11.65Q124.80-11.46 124.54-11.01L124.54-11.01L124.54-11.01Q121.86-6.72 121.34-0.70L121.34-0.70L121.34-0.70Q120.83 0.38 120 0.38L120 0.38L120 0.38Q118.27 0 118.08 0L118.08 0L117.63 0.06L116.80 0.06L116.80 0.06Q115.33-0.06 114.88-1.09L114.88-1.09L114.88-1.09Q114.62-1.41 114.62-2.75L114.62-2.75L114.62-3.65L114.43-7.17L114.43-12.42L114.43-12.42Q114.43-13.31 114.30-14.66L114.30-14.66L114.30-14.66Q114.18-16.13 114.24-19.30L114.24-19.30L114.24-19.30Q114.30-22.46 114.18-22.69L114.18-22.69L114.18-22.69Q114.05-22.91 114.05-23.30L114.05-23.30L114.05-23.30Q114.05-23.68 114.24-24.06L114.24-24.06L114.24-24.06Q114.43-24.45 115.97-24.90L115.97-24.90L115.97-24.90Q116.80-25.41 117.38-25.41L117.38-25.41L117.38-25.41Q118.27-25.22 119.68-24.64L119.68-24.64L119.68-24.64Q120.64-24.45 120.64-22.78L120.64-22.78L120.64-22.78Q120.77-20.03 120.67-18.82L120.67-18.82L120.67-18.82Q120.58-17.60 120.70-13.89L120.70-13.89L120.70-13.89Q125.44-22.98 129.15-24.83L129.15-24.83L129.15-24.83Q129.47-25.15 130.11-25.15L130.11-25.15L130.11-25.15Q130.75-25.15 131.58-24.51L131.58-24.51L131.58-24.51Q132.42-23.87 132.74-23.68L132.74-23.68L132.74-23.68Q133.06-23.49 133.47-23.04L133.47-23.04L133.47-23.04Q133.89-22.59 134.14-22.46L134.14-22.46L134.14-22.46Q134.91-21.18 134.46-16.45L134.46-16.45L134.46-16.45Q134.40-15.74 134.34-15.20L134.34-15.20L134.34-15.20Q134.27-14.66 134.27-12.86L134.27-12.86L134.27-12.86Q134.27-11.07 134.34-10.37L134.34-10.37L134.34-10.37Q134.53-8.13 134.53-7.74L134.53-7.74L134.85-5.31L134.85-5.31Q135.49-3.84 135.52-3.04L135.52-3.04L135.52-3.04Q135.55-2.24 136.64-0.51L136.64-0.51L136.64-0.51Q137.09 0.45 136.26 1.02L136.26 1.02L136.26 1.02Q134.98 1.66 134.88 1.57L134.88 1.57L134.88 1.57Q134.78 1.47 134.14 1.70L134.14 1.70L134.14 1.70Q133.50 1.92 131.84 1.79L131.84 1.79L131.84 1.79Q131.01 1.60 130.18 0.77L130.18 0.77L129.22-0.19L129.22-0.19Q128.70-0.96 128.51-1.86L128.51-1.86L128.51-1.86Q128.19-2.18 128.32-2.37ZM141.12-16.96L141.12-16.96L141.12-16.96Q142.34-17.47 143.78-17.47L143.78-17.47L143.78-17.47Q145.22-17.47 146.05-17.60L146.05-17.60L146.11-17.60L146.11-17.60Q148.16-17.98 150.72-17.98L150.72-17.98L158.40-17.60L159.49-17.47L159.49-17.47Q161.15-17.47 162.34-16.58L162.34-16.58L162.34-16.58Q163.52-15.68 163.49-15.20L163.49-15.20L163.49-15.20Q163.46-14.72 163.39-14.14L163.39-14.14L163.39-14.14Q163.33-13.57 163.26-13.31L163.26-13.31L163.26-13.31Q163.07-12.74 161.86-12.48L161.86-12.48L160.83-12.29L160.83-12.29Q159.68-12.29 158.91-12.03L158.91-12.03L158.91-12.03Q157.95-12.03 157.25-11.74L157.25-11.74L157.25-11.74Q156.54-11.46 154.75-11.46L154.75-11.46L153.73-11.26L153.73-11.26Q151.68-10.62 149.89-10.69L149.89-10.69L149.89-10.69Q149.12-10.37 148.29-10.40L148.29-10.40L148.29-10.40Q147.46-10.43 147.26-10.24L147.26-10.24L147.26-10.24Q146.62-9.86 144.26-9.86L144.26-9.86L144.26-9.86Q143.68-9.86 142.02-10.94L142.02-10.94L141.12-12.16L141.12-12.16Q140.99-12.29 141.06-13.18L141.06-13.18L141.06-13.18Q140.80-13.63 140.80-15.17L140.80-15.17L140.80-15.17Q141.12-15.62 141.12-16.96ZM172.77-41.22L172.77-41.22L172.77-41.22Q173.82-41.47 174.46-41.47L174.46-41.47L174.46-41.47Q175.10-41.47 176.93-40.93L176.93-40.93L176.93-40.93Q178.75-40.38 178.75-39.74L178.75-39.74L178.75-39.74Q178.75-39.68 178.50-39.17L178.50-39.17L178.50-39.17Q178.11-38.78 178.05-37.44L178.05-37.44L178.05-37.44Q177.98-36.10 177.89-35.81L177.89-35.81L177.89-35.81Q177.79-35.52 177.63-34.75L177.63-34.75L177.63-34.75Q177.47-33.98 177.22-33.28L177.22-33.28L177.22-33.28Q177.09-32.13 175.17-30.59L175.17-30.59L175.17-30.59Q174.34-29.89 174.08-29.89L174.08-29.89L174.08-29.89Q173.50-29.89 173.50-30.34L173.50-30.34L173.50-30.34Q172.67-30.59 172.35-31.36L172.35-31.36L172.35-31.36Q171.90-32 171.78-32.06L171.78-32.06L170.18-32.38L170.18-32.38Q169.73-32.83 169.22-34.50L169.22-34.50L169.22-34.50Q169.22-35.58 169.79-37.31L169.79-37.31L169.79-37.31Q170.37-39.04 171.52-40.38L171.52-40.38L171.52-40.38Q171.71-40.96 172.77-41.22ZM168.83-15.10L168.83-15.94L168.83-15.94Q168.70-16.06 168.61-16.93L168.61-16.93L168.61-16.93Q168.51-17.79 168.45-18.27L168.45-18.27L168.45-18.27Q168.38-18.75 168.32-19.46L168.32-19.46L168.32-21.57L168.32-21.57Q168.32-22.59 169.41-23.62L169.41-23.62L169.41-23.62Q171.20-24.51 172.13-24.51L172.13-24.51L172.13-24.51Q173.06-24.51 174.46-23.74L174.46-23.74L175.55-23.23L175.55-23.23Q175.87-22.40 176.13-18.05L176.13-18.05L176.13-16.13L176.13-16.13Q176.13-0.13 173.70 7.36L173.70 7.36L173.57 8.32L173.57 8.32Q173.06 9.92 171.71 12.16L171.71 12.16L171.46 12.67L171.46 12.67Q171.14 13.38 169.09 14.85L169.09 14.85L169.09 14.85Q168.13 15.74 166.46 15.62L166.46 15.62L166.46 15.62Q163.33 15.62 162.24 14.78L162.24 14.78L162.24 14.78Q161.98 14.59 161.66 14.34L161.66 14.34L161.66 14.34Q161.22 13.89 160.06 13.44L160.06 13.44L160.06 13.44Q159.81 13.18 159.55 12.48L159.55 12.48L159.55 12.48Q159.30 11.78 159.17 11.52L159.17 11.52L159.17 11.52Q159.04 11.26 158.78 10.24L158.78 10.24L159.17 8.58L159.17 8.58Q159.74 7.10 160.74 7.10L160.74 7.10L160.74 7.10Q161.73 7.10 161.92 8.06L161.92 8.06L161.92 8.06Q161.92 8.64 162.18 9.15L162.18 9.15L162.18 9.15Q163.14 10.37 164.16 10.50L164.16 10.50L164.16 10.50Q165.38 10.37 166.40 8.32L166.40 8.32L166.40 8.32Q166.85 7.87 166.85 7.58L166.85 7.58L166.85 7.58Q166.85 7.30 167.30 6.53L167.30 6.53L167.30 6.53Q168 5.82 168.26 3.78L168.26 3.78L168.26 3.78Q168.26 3.71 168.19 3.58L168.19 3.58L168.19 3.58Q168.19 3.39 168.64 2.30L168.64 2.30L168.64 2.30Q169.09 1.86 169.09 0.83L169.09 0.83L169.66-3.39L169.73-5.38L169.02-13.44L169.02-13.44Q169.02-14.14 168.83-15.10L168.83-15.10ZM184.90-24.83L184.90-24.83L184.90-24.83Q186.62-26.94 189.63-27.07L189.63-27.07L189.63-27.07Q194.56-27.26 196.96-24.64L196.96-24.64L196.96-24.64Q199.36-22.02 199.52-19.46L199.52-19.46L199.52-19.46Q199.68-16.90 198.21-16.70L198.21-16.70L198.21-16.70Q196.10-16.64 195.46-17.28L195.46-17.28L195.46-17.28Q194.88-17.22 193.98-18.11L193.98-18.11L193.98-18.11Q193.60-18.30 192.96-19.58L192.96-19.58L192.26-21.18L192.26-21.18Q191.74-22.34 190.98-22.46L190.98-22.46L190.98-22.46Q190.02-22.08 190.02-20.54L190.02-20.54L190.02-20.54Q190.27-17.54 192.90-14.78L192.90-14.78L192.90-14.78Q192.90-14.78 192.99-14.62L192.99-14.62L192.99-14.62Q193.09-14.46 193.92-13.57L193.92-13.57L193.92-13.57Q198.98-8 199.17-4.61L199.17-4.61L199.17-4.61Q199.17-2.43 198.27-1.73L198.27-1.73L198.27-1.73Q195.52 1.54 191.10 1.66L191.10 1.66L191.10 1.66Q186.69 1.79 183.81-1.09L183.81-1.09L183.81-1.09Q183.04-1.86 183.04-2.56L183.04-2.56L183.04-2.56Q182.66-3.78 182.78-4.16L182.78-4.16L182.78-4.16Q182.59-5.95 182.78-6.85L182.78-6.85L182.78-6.85Q183.17-8.90 185.79-8.96L185.79-8.96L185.79-8.96Q186.75-8.96 187.01-7.81L187.01-7.81L187.01-7.81Q187.84-4.54 188.58-3.52L188.58-3.52L188.58-3.52Q189.31-2.50 190.98-2.56L190.98-2.56L190.98-2.56Q193.09-2.69 192.99-4.93L192.99-4.93L192.99-4.93Q192.90-7.17 190.85-9.09L190.85-9.09L190.85-9.09Q190.21-9.86 189.60-10.27L189.60-10.27L189.60-10.27Q188.99-10.69 188.80-10.88L188.80-10.88L188.80-10.88Q188.74-11.07 188.48-11.26L188.48-11.26L188.48-11.26Q187.20-12.29 185.25-14.66L185.25-14.66L185.25-14.66Q183.30-17.02 183.17-19.07L183.17-19.07L183.17-19.07Q182.91-22.72 184.90-24.83Z"></path></g></g><style>text {
  font-size: 64px;
  font-family: Arial Black;
  dominant-baseline: central;
  text-anchor: middle;
}</style></svg>